<svg width="326" height="303" viewBox="0 0 326 303" fill="none" xmlns="http://www.w3.org/2000/svg">
<g clip-path="url(#clip0_97_3728)">
<rect x="220.022" y="43.0217" width="57.9565" height="57.9565" rx="28.9783" fill="#0EAD00"/>
<rect x="220.022" y="43.0217" width="57.9565" height="57.9565" rx="28.9783" stroke="#0EAD00" stroke-width="4.04348"/>
<path d="M234.174 71.4758L243.758 81.0603L262.927 61.8913" stroke="white" stroke-width="7.18841" stroke-linecap="round" stroke-linejoin="round"/>
<path d="M212.172 295.915C224.612 294.859 233.841 283.918 232.785 271.478L211.768 150.62C210.712 138.18 199.771 128.952 187.331 130.008C174.892 131.064 165.663 142.005 166.719 154.445L187.736 275.303C188.792 287.742 199.733 296.971 212.172 295.915Z" fill="#CFCFCF" stroke="#262525" stroke-width="1.4" stroke-linecap="round" stroke-linejoin="round"/>
<path d="M215.126 149.212L236.742 267.284C239.224 280.835 230.853 294.012 217.533 297.525C202.688 301.44 187.651 291.895 184.878 276.795L163.193 158.734C160.538 144.281 170.211 130.448 184.698 127.98L184.766 127.969C198.995 125.546 212.526 135.014 215.126 149.211V149.212Z" fill="white" stroke="#262525" stroke-width="1.4" stroke-linecap="round" stroke-linejoin="round"/>
<path d="M300.572 154.805C290.647 147.231 276.462 149.137 268.888 159.062L192.107 259.675C184.533 269.601 186.439 283.786 196.363 291.36C206.289 298.934 220.474 297.028 228.048 287.103L304.829 186.489C312.403 176.564 310.496 162.379 300.572 154.805Z" fill="#CFCFCF" stroke="#262525" stroke-width="1.4" stroke-linecap="round" stroke-linejoin="round"/>
<path d="M189.505 257.176L234.434 193.999C235.721 192.19 237.737 191.038 239.949 190.849L240.979 190.761L240.657 188.231C240.533 187.258 240.785 186.276 241.362 185.484L244.347 181.387C245.755 179.456 248.26 178.673 250.517 179.457L252.669 180.206L253.366 181.992C258.5 195.156 271.204 203.805 285.333 203.756L291.588 203.734L292.562 204.978C294.295 207.195 294.487 210.249 293.045 212.666L292.569 213.463C291.871 214.634 290.767 215.506 289.467 215.912L287.365 216.571L231.427 288.388C222.686 299.609 206.577 301.782 195.177 293.276C183.792 284.783 181.274 268.753 189.506 257.177L189.505 257.176Z" fill="white"/>
<path d="M195.558 248.663L234.434 193.999C235.721 192.19 237.737 191.038 239.948 190.849L240.979 190.761L240.656 188.231C240.532 187.258 240.785 186.276 241.361 185.484L244.347 181.387C245.755 179.456 248.26 178.673 250.517 179.457L252.669 180.206L253.366 181.992C258.499 195.156 271.203 203.805 285.333 203.756L291.588 203.734L292.561 204.978C294.295 207.195 294.487 210.249 293.045 212.666L292.569 213.463C291.871 214.634 290.767 215.506 289.466 215.912L287.365 216.571L231.427 288.388C222.686 299.609 206.577 301.782 195.177 293.276C190.58 289.846 187.428 285.188 185.847 280.09C185.847 280.09 184.873 276.773 184.49 274.688C184.107 272.603 183.867 271.294 183.867 271.294" stroke="#262525" stroke-width="1.4" stroke-linecap="round" stroke-linejoin="round"/>
<path d="M240.979 190.761C240.979 190.761 248.121 205.406 260.121 211.729" stroke="#262525" stroke-width="1.4" stroke-linecap="round" stroke-linejoin="round"/>
<path d="M287.364 216.57C287.364 216.57 280.231 217.602 273.144 214.118" stroke="#262525" stroke-width="1.4" stroke-linecap="round" stroke-linejoin="round"/>
<path d="M125.056 125.833L137.256 128.276C142.769 129.38 148.134 125.805 149.237 120.293L158.075 76.1485C159.179 70.6351 155.604 65.271 150.092 64.1679L137.891 61.725C132.378 60.6209 127.014 64.1958 125.911 69.7083L117.072 113.852C115.968 119.366 119.543 124.73 125.056 125.833Z" fill="#CFCFCF" stroke="#262525" stroke-width="1.4" stroke-linecap="round" stroke-linejoin="round"/>
<path d="M131.353 77.1286L134.456 61.6281C135.569 61.4692 136.726 61.4919 137.891 61.7249L150.092 64.1679C155.605 65.2719 159.179 70.636 158.075 76.1485L150.91 111.937C136.195 108.99 128.118 93.2837 131.353 77.1286Z" fill="#262525" stroke="#262525" stroke-width="1.4" stroke-linecap="round" stroke-linejoin="round"/>
<path d="M154.216 106.516C166.23 109.709 178.559 102.557 181.752 90.5415L192.878 48.6708C197.049 32.973 187.705 16.8659 172.007 12.694C156.309 8.52303 140.202 17.867 136.03 33.5648L128.449 62.0976C123.298 81.4785 134.835 101.365 154.216 106.515V106.516Z" fill="#CFCFCF" stroke="#262525" stroke-width="1.4" stroke-linecap="round" stroke-linejoin="round"/>
<path d="M189.354 61.9327C189.354 61.9327 195.422 52.1061 198.941 44.1132C202.46 36.1203 200.402 26.3661 196.189 25.2463C196.189 25.2463 191.667 9.53632 165.374 5.06071C139.082 0.585109 132.457 24.7724 132.457 24.7724C132.457 24.7724 125.881 25.3964 121.382 33.9662C116.883 42.5361 119.987 56.696 121.927 58.8439C121.927 58.8439 116.611 71.1335 124.205 78.2239L127.536 67.4216L136.421 54.8736C136.421 54.8736 139.826 41.2443 144.044 37.8257C149.778 33.1764 150.153 26.1261 150.153 26.1261C150.153 26.1261 157.398 22.7502 164.061 28.706C170.535 34.4925 171.511 51.4017 191.804 52.7144L189.355 61.9335L189.354 61.9327Z" fill="#262525" stroke="#262525" stroke-width="1.4" stroke-linecap="round" stroke-linejoin="round"/>
<path d="M162.372 62.1657C162.372 62.1657 160.237 54.3421 148.464 56.3635" stroke="#262525" stroke-width="1.4" stroke-linecap="round" stroke-linejoin="round"/>
<path d="M155.21 59.0978C154.745 60.8486 155.728 61.2903 156.996 61.6272C158.264 61.964 159.337 62.0688 159.802 60.318C160.425 57.9737 159.397 57.7005 158.129 57.3636C156.861 57.0267 155.826 56.7824 155.21 59.0978Z" fill="#262525"/>
<path d="M174.069 65.2737C174.069 65.2737 179.806 59.5413 189.023 67.1405" stroke="#262525" stroke-width="1.4" stroke-linecap="round" stroke-linejoin="round"/>
<path d="M184.191 66.7268C183.725 68.4776 182.653 68.3729 181.385 68.036C180.116 67.6991 179.134 67.2575 179.599 65.5067C180.222 63.1624 181.249 63.4356 182.517 63.7725C183.786 64.1094 184.806 64.4114 184.191 66.7268Z" fill="#262525"/>
<path d="M170.727 59.7952C170.727 59.7952 170.925 71.8998 170.177 79.0583C170.083 79.9642 169.25 80.6118 168.348 80.4766C166.697 80.2296 161.802 78.6987 161.802 78.6987" stroke="#262525" stroke-width="1.4" stroke-linecap="round" stroke-linejoin="round"/>
<path d="M157.415 86.7309C148.656 84.549 147.213 76.563 147.213 76.563" stroke="#262525" stroke-width="1.4" stroke-linecap="round" stroke-linejoin="round"/>
<path d="M154.679 51.5771L160.97 53.2494C161.829 53.4772 162.71 52.9666 162.939 52.1078C163.166 51.249 162.656 50.3684 161.797 50.1397L155.505 48.4674C154.646 48.2396 153.766 48.7502 153.537 49.609C153.308 50.4678 153.82 51.3485 154.679 51.5771Z" fill="#262525" stroke="#262525" stroke-width="1.4" stroke-linecap="round" stroke-linejoin="round"/>
<path d="M179.069 58.0584L185.361 59.7307C186.22 59.9584 187.1 59.4479 187.329 58.5891C187.558 57.7303 187.046 56.8496 186.187 56.621L179.895 54.9487C179.037 54.7209 178.156 55.2315 177.927 56.0903C177.699 56.9491 178.21 57.8297 179.069 58.0584Z" fill="#262525" stroke="#262525" stroke-width="1.4" stroke-linecap="round" stroke-linejoin="round"/>
<path d="M121.135 62.1439L126.446 66.6448C130.769 70.3087 137.434 68.2175 138.89 62.7409C139.656 59.8624 138.695 56.7999 136.422 54.8745L131.111 50.3736C126.788 46.7097 120.123 48.8008 118.667 54.2775C117.903 57.1559 118.863 60.2185 121.135 62.1439Z" fill="#CFCFCF"/>
<path d="M137.747 56.3251C137.374 55.7944 136.931 55.3056 136.421 54.8736L131.11 50.3727C126.787 46.7088 120.122 48.8 118.666 54.2766C117.902 57.1551 118.862 60.2176 121.134 62.143L126.445 66.6439C126.99 67.1056 127.573 67.4765 128.177 67.7602" stroke="#262525" stroke-width="1.4" stroke-linecap="round" stroke-linejoin="round"/>
<path d="M131.343 63.5508C132.31 62.8438 133.049 61.8131 133.38 60.5659C134.15 57.6674 132.426 54.6938 129.527 53.924C127.617 53.4161 125.675 53.993 124.352 55.2742" stroke="#262525" stroke-width="1.4" stroke-linecap="round" stroke-linejoin="round"/>
<path d="M133.438 59.6565C132.844 59.1564 132.308 58.8221 131.508 58.61C129.697 58.1291 127.856 58.6222 126.542 59.7673" stroke="#262525" stroke-width="1.4" stroke-linecap="round" stroke-linejoin="round"/>
<path d="M171.17 298.881H29.3457L55.4575 120.246C56.8661 111.325 64.8189 104.934 73.8338 105.477L118.168 108.152L150.377 114.601L195.516 130.895C203.94 133.936 208.718 142.836 206.599 151.537L171.17 298.881L171.17 298.881Z" fill="#CFCFCF"/>
<path d="M150.377 114.601L195.516 130.895C203.94 133.936 208.718 142.836 206.599 151.537L171.17 298.881H29.3457L55.4575 120.247C56.8661 111.326 64.8189 104.934 73.8338 105.478L118.211 108.161" stroke="#262525" stroke-width="1.4" stroke-linecap="round" stroke-linejoin="round"/>
<path d="M104.109 366.928L103.154 337.099C102.549 318.196 117.71 302.542 136.623 302.542C155.537 302.542 170.698 318.196 170.093 337.099L169.138 366.928H104.108H104.109Z" fill="#CFCFCF" stroke="#262525" stroke-width="1.4" stroke-linecap="round" stroke-linejoin="round"/>
<path d="M97.1539 369.492H172.239L172.97 336.187C173.418 315.716 156.948 298.881 136.473 298.881C115.997 298.881 94.9449 316.161 95.8037 336.897L97.1539 369.492Z" fill="#262525" stroke="#262525" stroke-width="1.4" stroke-linecap="round" stroke-linejoin="round"/>
<path d="M29.3457 298.881L30.4978 349.473H170.018L171.17 298.881H29.3457Z" fill="#CFCFCF" stroke="#262525" stroke-width="1.4" stroke-linecap="round" stroke-linejoin="round"/>
<path d="M172.628 351.812L175.379 272.235L27.2419 266.878L24.8662 291.934L25.2729 351.812H172.628Z" fill="#262525" stroke="#262525" stroke-width="1.4" stroke-linecap="round" stroke-linejoin="round"/>
<path d="M28.8776 366.928L27.9228 337.099C27.3179 318.196 42.479 302.542 61.3921 302.542C80.3052 302.542 95.4662 318.196 94.8605 337.099L93.9065 366.928H28.8776Z" fill="#CFCFCF" stroke="#262525" stroke-width="1.4" stroke-linecap="round" stroke-linejoin="round"/>
<path d="M96.4886 369.492H25.7701L24.8798 337.872C24.3073 317.52 40.6492 300.711 61.0093 300.711C81.3695 300.711 97.5639 317.351 97.1459 337.6L96.4878 369.491L96.4886 369.492Z" fill="#262525" stroke="#262525" stroke-width="1.4" stroke-linecap="round" stroke-linejoin="round"/>
<path d="M53.3169 119.588L27.3579 259.695C24.839 273.291 23.1598 287.027 22.3307 300.829L20.1348 337.374H38.3732L43.8124 302.529C44.9941 294.956 47.5496 287.662 51.3523 281.007L55.2353 274.211L53.2968 287.93C52.8648 290.987 52.6588 294.072 52.6789 297.159L52.9495 337.374H178.482L179.296 287.454L209.385 152.574C211.741 142.015 205.717 131.388 195.448 127.985L155.13 114.627C154.259 114.338 153.317 114.715 152.885 115.524C151.396 118.312 147.452 124.25 140.87 124.25C128.685 124.25 118.695 112.706 115.179 108.076C114.264 106.871 112.88 106.133 111.368 106.041L73.5566 103.759C63.7815 103.169 55.1009 109.957 53.3169 119.586V119.588Z" fill="white"/>
<path d="M204.347 175.163L179.297 287.455L178.483 337.374H52.9503L52.6798 297.16C52.6588 294.072 52.8657 290.988 53.2977 287.931L55.2362 274.212L51.3532 281.008C47.5505 287.663 44.995 294.957 43.8132 302.53L38.3741 337.375H20.1348L22.3307 300.829C23.1598 287.028 24.839 273.291 27.3579 259.696L53.3169 119.589C55.1009 109.961 63.7824 103.172 73.5566 103.762L111.368 106.045C112.879 106.135 114.264 106.875 115.179 108.08C118.695 112.709 128.685 124.253 140.87 124.253C147.452 124.253 151.396 118.316 152.885 115.527C153.317 114.718 154.259 114.341 155.13 114.63L195.448 127.989C196.363 128.293 197.245 128.653 198.09 129.066C198.09 129.066 203.746 131.375 206.371 133.965" stroke="#262525" stroke-width="1.4" stroke-linecap="round" stroke-linejoin="round"/>
<path d="M182.934 271.156L27.3291 259.871C27.3396 259.812 27.3474 259.753 27.3588 259.696L37.346 205.792L192.647 227.616L182.934 271.157V271.156Z" fill="#262525" stroke="#262525" stroke-width="1.4" stroke-linecap="round" stroke-linejoin="round"/>
<path d="M37.3454 205.791L192.647 227.616L190.253 238.346L34.5176 221.053L37.3454 205.791Z" fill="white" stroke="#262525" stroke-width="1.4" stroke-linecap="round" stroke-linejoin="round"/>
<path d="M182.934 271.156L27.3291 259.871C27.3396 259.812 27.3474 259.753 27.3588 259.696L30.7539 241.377L186.128 256.841L182.935 271.157L182.934 271.156Z" fill="white" stroke="#262525" stroke-width="1.4" stroke-linecap="round" stroke-linejoin="round"/>
<path d="M29.9506 268.052C41.7139 272.236 54.6406 266.091 58.8247 254.329L89.6748 135.6C93.858 123.836 87.7136 110.91 75.9512 106.725C64.1879 102.542 51.2612 108.687 47.0771 120.449L16.227 239.179C12.0438 250.942 18.1881 263.869 29.9506 268.053V268.052Z" fill="#CFCFCF" stroke="#262525" stroke-width="1.4" stroke-linecap="round" stroke-linejoin="round"/>
<path d="M94.4718 136.584L63.8713 252.617C60.3584 265.938 47.1821 274.308 33.6304 271.828C18.5296 269.064 8.97446 254.032 12.881 239.185L43.4152 123.134C47.1594 108.904 61.8133 100.482 75.9933 104.41C89.9211 108.268 98.1575 122.608 94.4718 136.583V136.584Z" fill="white"/>
<path d="M89.7832 154.362L63.8713 252.617C60.3584 265.938 47.1821 274.308 33.6304 271.828C18.5296 269.064 8.97446 254.032 12.881 239.185L43.4152 123.134C46.8888 109.932 59.7536 101.729 72.9177 103.749L79.1842 104.099" stroke="#262525" stroke-width="1.4" stroke-linecap="round" stroke-linejoin="round"/>
<path d="M172.523 183.448C167.185 172.161 153.709 167.339 142.422 172.677L28.008 226.786C16.7221 232.124 11.8991 245.599 17.237 256.886C22.5749 268.173 36.0506 272.995 47.3374 267.657L161.752 213.548C173.038 208.21 177.86 194.735 172.523 183.448Z" fill="#CFCFCF" stroke="#262525" stroke-width="1.4" stroke-linecap="round" stroke-linejoin="round"/>
<path d="M26.9227 222.163L91.8634 190.913C92.9422 190.393 94.1536 190.218 95.3345 190.408L97.5199 190.761L97.6517 189.776C97.8105 188.587 98.569 187.561 99.6608 187.061L104.573 184.811C106.689 183.841 109.185 184.87 110.002 187.051L110.306 187.864L110.426 191.751C110.865 206.059 120.132 218.595 133.683 223.211L138.12 224.722L138.931 226.348C139.796 228.078 139.352 230.175 137.863 231.408L136.878 232.224C135.532 233.338 133.839 233.949 132.091 233.949H130.643L48.9716 269.986C35.5597 275.905 19.8959 269.731 14.1286 256.252C8.58558 243.297 14.2229 228.273 26.9209 222.163L26.9227 222.163Z" fill="white"/>
<path d="M97.5205 190.761C97.5205 190.761 97.5205 210.505 107.328 220.167" stroke="#262525" stroke-width="1.4" stroke-linecap="round" stroke-linejoin="round"/>
<path d="M130.644 233.948C130.644 233.948 123.804 232.4 118.728 227.496" stroke="#262525" stroke-width="1.4" stroke-linecap="round" stroke-linejoin="round"/>
<path d="M36.1793 217.709L91.8643 190.912C92.943 190.392 94.1544 190.217 95.3353 190.407L97.5207 190.76L97.6525 189.775C97.8114 188.586 98.5698 187.56 99.6617 187.06L104.574 184.81C106.69 183.841 109.185 184.87 110.002 187.05L110.307 187.863L110.427 191.75C110.866 206.058 120.133 218.594 133.683 223.21L138.121 224.721L138.932 226.347C139.796 228.077 139.353 230.174 137.864 231.407L136.879 232.223C135.533 233.338 133.84 233.948 132.091 233.948H130.644L48.9725 269.985C35.5605 275.904 19.8967 269.73 14.1294 256.251C11.532 250.18 11.3898 243.656 13.2785 237.806L16.1281 226.838" stroke="#262525" stroke-width="1.4" stroke-linecap="round" stroke-linejoin="round"/>
<path d="M167.306 211.671L150.408 211.728C136.859 211.775 125.839 200.829 125.793 187.28L125.708 162.522L178.478 162.341L178.485 164.262C178.505 170.043 183.207 174.713 188.988 174.693L191.713 174.683L191.755 187.054C191.802 200.603 180.856 211.624 167.307 211.67L167.306 211.671Z" fill="#CFCFCF"/>
<path d="M136.073 207.167C129.872 202.734 125.82 195.485 125.792 187.28L125.707 162.522L178.477 162.341L178.484 164.262C178.504 170.043 183.207 174.713 188.987 174.693L191.712 174.683L191.755 187.054C191.801 200.603 180.855 211.624 167.306 211.67L164.916 211.728C164.916 211.728 163.128 212.889 162.083 213.388" stroke="#262525" stroke-width="1.4" stroke-linecap="round" stroke-linejoin="round"/>
<path d="M178.483 164.156L165.29 164.201L165.167 135.068C165.155 131.425 168.098 128.462 171.741 128.449C175.384 128.437 178.348 131.38 178.36 135.023L178.483 164.156Z" fill="#CFCFCF"/>
<path d="M165.291 164.201L165.168 135.068C165.156 131.425 168.099 128.462 171.742 128.449C175.385 128.437 178.349 131.38 178.361 135.023L178.484 164.156" fill="#CFCFCF"/>
<path d="M165.291 164.201L165.168 135.068C165.156 131.425 168.099 128.462 171.742 128.449C175.385 128.437 178.349 131.38 178.361 135.023L178.484 164.156" stroke="#262525" stroke-width="1.4" stroke-linecap="round" stroke-linejoin="round"/>
<path d="M167.037 139.617C164.507 137.017 164.551 132.862 167.136 130.316L175.262 122.352C177.872 119.811 182.049 119.868 184.589 122.478C187.13 125.089 187.073 129.265 184.463 131.806L176.392 139.716C173.785 142.282 169.589 142.237 167.038 139.615L167.037 139.617Z" fill="#CFCFCF"/>
<path d="M178.379 139.515L178.372 137.775L184.463 131.806C187.073 129.265 187.13 125.089 184.589 122.478C182.049 119.868 177.872 119.811 175.262 122.352L167.136 130.316C165.812 131.619 165.155 133.345 165.168 135.068V139.426" fill="#CFCFCF"/>
<path d="M178.379 139.515L178.372 137.775L184.463 131.806C187.073 129.265 187.13 125.089 184.589 122.478C182.049 119.868 177.872 119.811 175.262 122.352L167.136 130.316C165.812 131.619 165.155 133.345 165.168 135.068V139.426" stroke="#262525" stroke-width="1.4" stroke-linecap="round" stroke-linejoin="round"/>
<path d="M178.373 137.776L173.738 136.649" stroke="#262525" stroke-width="1.4" stroke-linecap="round" stroke-linejoin="round"/>
<path d="M165.291 164.201L152.099 164.247L151.958 151.097C151.946 147.454 154.889 144.49 158.532 144.477C162.175 144.465 165.138 147.408 165.151 151.051L165.291 164.201Z" fill="#CFCFCF"/>
<path d="M152.099 164.246L151.958 151.096C151.946 147.453 154.889 144.49 158.532 144.477C162.175 144.464 165.138 147.407 165.151 151.05L165.291 164.2" fill="#CFCFCF"/>
<path d="M152.099 164.246L151.958 151.096C151.946 147.453 154.889 144.49 158.532 144.477C162.175 144.464 165.138 147.407 165.151 151.05L165.291 164.2" stroke="#262525" stroke-width="1.4" stroke-linecap="round" stroke-linejoin="round"/>
<path d="M168.341 160.915C165.759 163.475 161.592 163.463 159.025 160.888L153.871 155.718C151.306 153.131 151.324 148.955 153.911 146.39C156.498 143.825 160.674 143.842 163.239 146.429L168.368 151.575C170.945 154.16 170.932 158.346 168.341 160.915Z" fill="#CFCFCF"/>
<path d="M154.406 156.255L159.025 160.888C161.592 163.464 165.759 163.476 168.341 160.915C170.933 158.346 170.945 154.159 168.368 151.575L163.239 146.429C160.674 143.842 156.497 143.825 153.911 146.39C152.604 147.685 151.953 149.391 151.959 151.097L152.004 155.247" fill="#CFCFCF"/>
<path d="M154.406 156.255L159.025 160.888C161.592 163.464 165.759 163.476 168.341 160.915C170.933 158.346 170.945 154.159 168.368 151.575L163.239 146.429C160.674 143.842 156.497 143.825 153.911 146.39C152.604 147.685 151.953 149.391 151.959 151.097L152.004 155.247" stroke="#262525" stroke-width="1.4" stroke-linecap="round" stroke-linejoin="round"/>
<path d="M163.801 175.163C160.173 175.176 157.216 172.256 157.183 168.628L157.104 156.241C157.091 152.599 160.034 149.635 163.677 149.622C167.32 149.61 170.283 152.553 170.296 156.196L170.376 168.506C170.41 172.164 167.461 175.15 163.803 175.162L163.801 175.163Z" fill="#CFCFCF"/>
<path d="M157.111 157.598L157.182 168.628C157.215 172.256 160.172 175.176 163.8 175.163C167.458 175.151 170.407 172.164 170.373 168.507L170.294 156.197C170.287 154.183 169.378 152.383 167.951 151.178L165.525 148.724" fill="#CFCFCF"/>
<path d="M157.111 157.598L157.182 168.628C157.215 172.256 160.172 175.176 163.8 175.163C167.458 175.151 170.407 172.164 170.373 168.507L170.294 156.197C170.287 154.183 169.378 152.383 167.951 151.178L165.525 148.724" stroke="#262525" stroke-width="1.4" stroke-linecap="round" stroke-linejoin="round"/>
<path d="M152.098 164.246L138.905 164.291L138.782 151.096C138.77 147.453 141.713 144.49 145.356 144.477C148.999 144.464 151.962 147.407 151.975 151.05L152.098 164.246Z" fill="#CFCFCF"/>
<path d="M138.906 164.291L138.783 151.096C138.771 147.453 141.714 144.49 145.357 144.477C149 144.464 151.963 147.407 151.976 151.05L152.099 164.246" fill="#CFCFCF"/>
<path d="M138.906 164.291L138.783 151.096C138.771 147.453 141.714 144.49 145.357 144.477C149 144.464 151.963 147.407 151.976 151.05L152.099 164.246" stroke="#262525" stroke-width="1.4" stroke-linecap="round" stroke-linejoin="round"/>
<path d="M155.165 160.915C152.584 163.475 148.416 163.463 145.849 160.888L140.696 155.718C138.131 153.131 138.148 148.955 140.735 146.39C143.322 143.825 147.498 143.842 150.063 146.429L155.192 151.575C157.769 154.16 157.757 158.346 155.165 160.915Z" fill="#CFCFCF"/>
<path d="M141.698 156.724L145.849 160.888C148.416 163.464 152.584 163.476 155.165 160.915C157.757 158.346 157.77 154.159 155.192 151.575L150.063 146.429C147.498 143.842 143.322 143.825 140.735 146.39C139.428 147.685 138.777 149.391 138.783 151.097L138.823 155.349" fill="#CFCFCF"/>
<path d="M141.698 156.724L145.849 160.888C148.416 163.464 152.584 163.476 155.165 160.915C157.757 158.346 157.77 154.159 155.192 151.575L150.063 146.429C147.498 143.842 143.322 143.825 140.735 146.39C139.428 147.685 138.777 149.391 138.783 151.097L138.823 155.349" stroke="#262525" stroke-width="1.4" stroke-linecap="round" stroke-linejoin="round"/>
<path d="M150.543 172.842C146.915 172.854 143.958 169.935 143.925 166.306L143.846 156.242C143.834 152.599 146.777 149.635 150.42 149.622C154.062 149.61 157.026 152.553 157.039 156.196L157.118 166.184C157.152 169.842 154.203 172.829 150.545 172.841L150.543 172.842Z" fill="#CFCFCF"/>
<path d="M143.846 157.334L143.925 166.306C143.958 169.935 146.915 172.854 150.543 172.842C154.201 172.83 157.15 169.843 157.116 166.185L157.037 156.197C157.031 154.387 156.296 152.75 155.112 151.562L152.553 148.929" fill="#CFCFCF"/>
<path d="M143.846 157.334L143.925 166.306C143.958 169.935 146.915 172.854 150.543 172.842C154.201 172.83 157.15 169.843 157.116 166.185L157.037 156.197C157.031 154.387 156.296 152.75 155.112 151.562L152.553 148.929" stroke="#262525" stroke-width="1.4" stroke-linecap="round" stroke-linejoin="round"/>
<path d="M138.907 166.14L125.714 166.185L125.63 152.944C125.618 149.301 128.561 146.338 132.204 146.325C135.847 146.313 138.81 149.256 138.823 152.899L138.907 166.14Z" fill="#CFCFCF"/>
<path d="M125.714 166.185L125.63 152.944C125.618 149.301 128.561 146.338 132.204 146.325C135.847 146.313 138.81 149.256 138.823 152.899L138.907 166.14" fill="#CFCFCF"/>
<path d="M125.714 166.185L125.63 152.944C125.618 149.301 128.561 146.338 132.204 146.325C135.847 146.313 138.81 149.256 138.823 152.899L138.907 166.14" stroke="#262525" stroke-width="1.4" stroke-linecap="round" stroke-linejoin="round"/>
<path d="M142.012 162.764C139.43 165.324 135.263 165.312 132.696 162.737L127.542 157.566C124.977 154.98 124.995 150.803 127.582 148.238C130.168 145.673 134.345 145.691 136.91 148.278L142.039 153.423C144.616 156.009 144.603 160.194 142.012 162.764Z" fill="#CFCFCF"/>
<path d="M128.037 158.062L132.696 162.737C135.263 165.312 139.43 165.325 142.012 162.764C144.604 160.194 144.616 156.008 142.039 153.423L136.91 148.278C134.345 145.691 130.168 145.673 127.581 148.238C126.195 149.614 125.546 151.452 125.639 153.261V157.291" fill="#CFCFCF"/>
<path d="M128.037 158.062L132.696 162.737C135.263 165.312 139.43 165.325 142.012 162.764C144.604 160.194 144.616 156.008 142.039 153.423L136.91 148.278C134.345 145.691 130.168 145.673 127.581 148.238C126.195 149.614 125.546 151.452 125.639 153.261V157.291" stroke="#262525" stroke-width="1.4" stroke-linecap="round" stroke-linejoin="round"/>
<path d="M137.423 171.835C133.795 171.847 130.838 168.927 130.805 165.299L130.726 158.09C130.713 154.447 133.656 151.484 137.299 151.471C140.942 151.459 143.905 154.402 143.919 158.045L143.998 165.178C144.032 168.836 141.083 171.822 137.425 171.835H137.423Z" fill="#CFCFCF"/>
<path d="M130.726 158.09L130.805 165.299C130.838 168.927 133.795 171.847 137.423 171.835C141.081 171.823 144.03 168.836 143.996 165.178L143.917 158.045C143.91 156.103 143.065 154.36 141.725 153.157L139.325 150.702" fill="#CFCFCF"/>
<path d="M130.726 158.09L130.805 165.299C130.838 168.927 133.795 171.847 137.423 171.835C141.081 171.823 144.03 168.836 143.996 165.178L143.917 158.045C143.91 156.103 143.065 154.36 141.725 153.157L139.325 150.702" stroke="#262525" stroke-width="1.4" stroke-linecap="round" stroke-linejoin="round"/>
<path d="M189.02 191.496L176.35 187.819L184.857 158.508C185.872 155.009 189.531 152.997 193.03 154.012C196.529 155.027 198.542 158.686 197.527 162.185L189.021 191.496H189.02Z" fill="#CFCFCF"/>
<path d="M191.744 184.152L191.737 182.131L197.525 162.185C198.54 158.686 196.528 155.028 193.029 154.012C189.53 152.996 185.87 155.009 184.855 158.508L180.366 173.976L170.913 180.981C165.774 184.789 162.744 190.807 162.744 197.203V199.778" fill="#CFCFCF"/>
<path d="M191.744 184.152L191.737 182.131L197.525 162.185C198.54 158.686 196.528 155.028 193.029 154.012C189.53 152.996 185.87 155.009 184.855 158.508L180.366 173.976L170.913 180.981C165.774 184.789 162.744 190.807 162.744 197.203V199.778" stroke="#262525" stroke-width="1.4" stroke-linecap="round" stroke-linejoin="round"/>
<path d="M197.537 162.189C196.525 165.673 192.89 167.686 189.4 166.696L179.721 163.934C176.222 162.919 174.21 159.26 175.225 155.761C176.24 152.262 179.9 150.249 183.398 151.264L193.003 154.005C196.522 155.004 198.556 158.676 197.537 162.189Z" fill="#CFCFCF"/>
<path d="M186.08 165.748L179.721 163.933C176.222 162.918 174.21 159.259 175.225 155.76C176.24 152.261 179.9 150.248 183.398 151.263L193.003 154.004C196.522 155.003 198.556 158.675 197.537 162.188L196.183 166.812" fill="#CFCFCF"/>
<path d="M186.08 165.748L179.721 163.933C176.222 162.918 174.21 159.259 175.225 155.76C176.24 152.261 179.9 150.248 183.398 151.263L193.003 154.004C196.522 155.003 198.556 158.675 197.537 162.188L196.183 166.812" stroke="#262525" stroke-width="1.4" stroke-linecap="round" stroke-linejoin="round"/>
<path d="M309.059 136.771L299.495 147.174L275.429 125.049C272.555 122.408 272.368 117.939 275.009 115.066C277.65 112.192 282.119 112.005 284.992 114.646L309.059 136.771Z" fill="#CFCFCF" stroke="#262525" stroke-width="1.4" stroke-linecap="round" stroke-linejoin="round"/>
<path d="M219.942 204.381H269.231C271.74 204.381 273.859 202.52 274.181 200.032L287.322 98.6993C287.71 95.7127 285.384 93.0664 282.373 93.0664H233.083C230.575 93.0664 228.456 94.928 228.134 97.4155L214.992 198.748C214.605 201.735 216.931 204.381 219.942 204.381Z" fill="white" stroke="#262525" stroke-width="1.4" stroke-linecap="round" stroke-linejoin="round"/>
<path d="M223.355 204.381H272.644C275.153 204.381 277.272 202.52 277.594 200.032L290.735 98.6993C291.123 95.7127 288.797 93.0664 285.786 93.0664H236.497C233.988 93.0664 231.869 94.928 231.547 97.4155L218.406 198.748C218.018 201.735 220.344 204.381 223.355 204.381Z" fill="#262525" stroke="#262525" stroke-width="1.4" stroke-linecap="round" stroke-linejoin="round"/>
<path d="M236.183 119.053H243.63C244.716 119.053 245.634 118.251 245.78 117.175L247.62 103.575C247.796 102.272 246.784 101.114 245.471 101.114H238.024C236.938 101.114 236.02 101.916 235.874 102.993L234.034 116.593C233.857 117.895 234.87 119.053 236.183 119.053Z" fill="white" stroke="#262525" stroke-width="1.4" stroke-linecap="round" stroke-linejoin="round"/>
<path d="M313.69 152.205L309.808 174.87C307.358 189.175 293.775 198.784 279.471 196.334L267.825 194.339L277.368 138.625L279.26 138.949C284.789 139.896 290.304 137.199 292.952 132.254L295.55 127.402L296.224 127.518C307.864 129.512 315.683 140.564 313.69 152.204V152.205Z" fill="#CFCFCF"/>
<path d="M296.826 125.525L300.316 128.642C309.632 132.226 315.44 141.989 313.69 152.204L309.808 174.869C309.117 178.904 307.54 182.565 305.31 185.688C305.31 185.688 304.142 187.791 302.607 189.669C301.073 191.547 298.564 194.698 298.564 194.698" stroke="#262525" stroke-width="1.4" stroke-linecap="round" stroke-linejoin="round"/>
<path d="M292.006 133.766C289.122 137.737 284.197 139.796 279.26 138.95L277.368 138.626L267.825 194.34L279.471 196.335C283.929 197.099 288.316 196.691 292.319 195.335" stroke="#262525" stroke-width="1.4" stroke-linecap="round" stroke-linejoin="round"/>
<path d="M272.309 180.77L269.923 194.699L244.035 190.264C240.189 189.605 237.605 185.953 238.264 182.107C238.922 178.261 242.574 175.677 246.42 176.335L272.308 180.77H272.309Z" fill="#CFCFCF"/>
<path d="M269.923 194.699L244.035 190.264C240.189 189.605 237.605 185.953 238.264 182.107C238.922 178.261 242.574 175.677 246.42 176.335L272.308 180.77" stroke="#262525" stroke-width="1.4" stroke-linecap="round" stroke-linejoin="round"/>
<path d="M274.695 166.841L272.309 180.77L234.483 174.291C230.637 173.632 228.054 169.981 228.712 166.134C229.371 162.288 233.022 159.705 236.869 160.363L274.694 166.841H274.695Z" fill="#CFCFCF"/>
<path d="M272.309 180.77L234.483 174.291C230.637 173.632 228.054 169.981 228.712 166.134C229.371 162.288 233.022 159.705 236.869 160.363L274.694 166.841" stroke="#262525" stroke-width="1.4" stroke-linecap="round" stroke-linejoin="round"/>
<path d="M277.08 152.914L274.694 166.842L231.543 159.451C227.697 158.792 225.113 155.14 225.771 151.294C226.43 147.447 230.082 144.864 233.928 145.522L277.079 152.914H277.08Z" fill="#CFCFCF"/>
<path d="M274.695 166.841L231.544 159.45C227.698 158.791 225.114 155.139 225.772 151.293C226.431 147.446 230.083 144.863 233.929 145.521L277.08 152.913" stroke="#262525" stroke-width="1.4" stroke-linecap="round" stroke-linejoin="round"/>
<path d="M279.466 138.985L277.08 152.914L239.255 146.435C235.409 145.776 232.825 142.124 233.483 138.278C234.141 134.432 237.794 131.848 241.64 132.506L279.466 138.985H279.466Z" fill="#CFCFCF"/>
<path d="M277.08 152.914L239.255 146.435C235.409 145.776 232.825 142.124 233.483 138.278C234.141 134.432 237.794 131.848 241.64 132.506L279.466 138.985" stroke="#262525" stroke-width="1.4" stroke-linecap="round" stroke-linejoin="round"/>
</g>
<defs>
<clipPath id="clip0_97_3728">
<rect width="326" height="303" fill="white"/>
</clipPath>
</defs>
</svg>
