<svg width="174" height="136" viewBox="0 0 174 136" fill="none" xmlns="http://www.w3.org/2000/svg">
<path d="M24.7143 0.799805H149.286C162.099 0.799805 172.486 11.187 172.486 24V84C172.486 96.813 162.099 107.2 149.286 107.2H24.7143C11.9013 107.2 1.5141 96.813 1.5141 84V24C1.5141 11.187 11.9013 0.799805 24.7143 0.799805Z" stroke="#F1F1F1" stroke-width="1.6"/>
<g clip-path="url(#clip0_174_219)">
<path d="M87.3521 50.4708L89.6667 46.4354L97.5292 45.9312L97.8042 45.4396L90.5375 44.9354L92.2458 41.9896H105.725C109.871 41.9896 112.933 43.4791 111.74 47.8229C111.385 49.1521 109.7 52.475 104.748 53.8625C105.804 53.9875 108.415 55.1458 107.956 58.1479C107.156 63.4771 100.269 66.0104 96.4292 66.0104L80.5104 66.0229L79.7188 62.9396L88.0625 62.3562L88.3479 61.8625L79.2937 61.3125L78.3208 57.6562L91.1917 56.9L91.4771 56.4187L68.3604 54.975L69.4729 53.0479L94.3646 51.4333L94.6521 50.9521L87.3521 50.4708ZM97.7687 51.2729L100.06 51.2604C101.598 51.25 103.19 50.5521 103.775 49.1396C104.315 47.8229 103.592 46.7 102.629 46.7104H100.406L97.7687 51.2729ZM95.1229 55.8458L92.3604 60.6479H94.9958C96.2229 60.6479 98.4125 60.0396 99.0875 58.2979C99.7167 56.6708 98.5604 55.8458 97.7583 55.8458H95.1229ZM75.0417 63.2604L73.4375 66L62 66.0208L63.1125 64.0979L75.0417 63.2604ZM75.8437 41.9771L85.0458 41.9896L85.7458 44.5896L74.7542 43.9021L75.8437 41.9771ZM86.2604 46.6541L87.2687 50.4708L71.5562 49.4396L72.6562 47.5229L86.2604 46.6541ZM78.2604 57.6562L76.2667 61.1166L65.1833 60.4875L66.2958 58.5625L78.2604 57.6562Z" fill="black"/>
</g>
<path d="M44.836 135H43.012L37.524 126.696V135H35.7V123.864H37.524L43.012 132.152V123.864H44.836V135ZM55.3113 130.376C55.3113 130.707 55.2899 131.005 55.2473 131.272H48.5113C48.5646 131.976 48.8259 132.541 49.2953 132.968C49.7646 133.395 50.3406 133.608 51.0233 133.608C52.0046 133.608 52.6979 133.197 53.1033 132.376H55.0712C54.8046 133.187 54.3193 133.853 53.6153 134.376C52.9219 134.888 52.0579 135.144 51.0233 135.144C50.1806 135.144 49.4233 134.957 48.7513 134.584C48.0899 134.2 47.5673 133.667 47.1833 132.984C46.8099 132.291 46.6233 131.491 46.6233 130.584C46.6233 129.677 46.8046 128.883 47.1673 128.2C47.5406 127.507 48.0579 126.973 48.7193 126.6C49.3913 126.227 50.1593 126.04 51.0233 126.04C51.8553 126.04 52.5966 126.221 53.2473 126.584C53.8979 126.947 54.4046 127.459 54.7673 128.12C55.1299 128.771 55.3113 129.523 55.3113 130.376ZM53.4073 129.8C53.3966 129.128 53.1566 128.589 52.6873 128.184C52.2179 127.779 51.6366 127.576 50.9433 127.576C50.3139 127.576 49.7753 127.779 49.3273 128.184C48.8793 128.579 48.6126 129.117 48.5273 129.8H53.4073ZM68.9463 126.184L66.2103 135H64.2903L62.5143 128.488L60.7383 135H58.8183L56.0663 126.184H57.9223L59.7623 133.272L61.6343 126.184H63.5383L65.3303 133.24L67.1543 126.184H68.9463ZM80.4176 129.288C81.015 129.395 81.5216 129.709 81.9376 130.232C82.3536 130.755 82.5616 131.347 82.5616 132.008C82.5616 132.573 82.4123 133.085 82.1136 133.544C81.8256 133.992 81.4043 134.349 80.8496 134.616C80.295 134.872 79.6496 135 78.9136 135H74.4656V123.88H78.7056C79.463 123.88 80.1136 124.008 80.6576 124.264C81.2016 124.52 81.6123 124.867 81.8896 125.304C82.167 125.731 82.3056 126.211 82.3056 126.744C82.3056 127.384 82.135 127.917 81.7936 128.344C81.4523 128.771 80.9936 129.085 80.4176 129.288ZM76.2896 128.552H78.5456C79.143 128.552 79.607 128.419 79.9376 128.152C80.279 127.875 80.4496 127.48 80.4496 126.968C80.4496 126.467 80.279 126.077 79.9376 125.8C79.607 125.512 79.143 125.368 78.5456 125.368H76.2896V128.552ZM78.7536 133.512C79.3723 133.512 79.8576 133.363 80.2096 133.064C80.5616 132.765 80.7376 132.349 80.7376 131.816C80.7376 131.272 80.551 130.84 80.1776 130.52C79.8043 130.2 79.3083 130.04 78.6896 130.04H76.2896V133.512H78.7536ZM83.9358 130.552C83.9358 129.667 84.1171 128.883 84.4798 128.2C84.8531 127.517 85.3544 126.989 85.9838 126.616C86.6238 126.232 87.3278 126.04 88.0958 126.04C88.7891 126.04 89.3918 126.179 89.9038 126.456C90.4264 126.723 90.8424 127.059 91.1518 127.464V126.184H92.9918V135H91.1518V133.688C90.8424 134.104 90.4211 134.451 89.8878 134.728C89.3544 135.005 88.7464 135.144 88.0638 135.144C87.3064 135.144 86.6131 134.952 85.9838 134.568C85.3544 134.173 84.8531 133.629 84.4798 132.936C84.1171 132.232 83.9358 131.437 83.9358 130.552ZM91.1518 130.584C91.1518 129.976 91.0238 129.448 90.7678 129C90.5224 128.552 90.1971 128.211 89.7918 127.976C89.3864 127.741 88.9491 127.624 88.4798 127.624C88.0104 127.624 87.5731 127.741 87.1678 127.976C86.7624 128.2 86.4318 128.536 86.1758 128.984C85.9304 129.421 85.8078 129.944 85.8078 130.552C85.8078 131.16 85.9304 131.693 86.1758 132.152C86.4318 132.611 86.7624 132.963 87.1678 133.208C87.5838 133.443 88.0211 133.56 88.4798 133.56C88.9491 133.56 89.3864 133.443 89.7918 133.208C90.1971 132.973 90.5224 132.632 90.7678 132.184C91.0238 131.725 91.1518 131.192 91.1518 130.584ZM97.2115 123.16V135H95.3875V123.16H97.2115ZM98.9983 130.552C98.9983 129.667 99.1796 128.883 99.5423 128.2C99.9156 127.517 100.417 126.989 101.046 126.616C101.686 126.232 102.39 126.04 103.158 126.04C103.852 126.04 104.454 126.179 104.966 126.456C105.489 126.723 105.905 127.059 106.214 127.464V126.184H108.054V135H106.214V133.688C105.905 134.104 105.484 134.451 104.95 134.728C104.417 135.005 103.809 135.144 103.126 135.144C102.369 135.144 101.676 134.952 101.046 134.568C100.417 134.173 99.9156 133.629 99.5423 132.936C99.1796 132.232 98.9983 131.437 98.9983 130.552ZM106.214 130.584C106.214 129.976 106.086 129.448 105.83 129C105.585 128.552 105.26 128.211 104.854 127.976C104.449 127.741 104.012 127.624 103.542 127.624C103.073 127.624 102.636 127.741 102.23 127.976C101.825 128.2 101.494 128.536 101.238 128.984C100.993 129.421 100.87 129.944 100.87 130.552C100.87 131.16 100.993 131.693 101.238 132.152C101.494 132.611 101.825 132.963 102.23 133.208C102.646 133.443 103.084 133.56 103.542 133.56C104.012 133.56 104.449 133.443 104.854 133.208C105.26 132.973 105.585 132.632 105.83 132.184C106.086 131.725 106.214 131.192 106.214 130.584ZM114.898 126.04C115.591 126.04 116.21 126.184 116.754 126.472C117.309 126.76 117.741 127.187 118.05 127.752C118.359 128.317 118.514 129 118.514 129.8V135H116.706V130.072C116.706 129.283 116.509 128.68 116.114 128.264C115.719 127.837 115.181 127.624 114.498 127.624C113.815 127.624 113.271 127.837 112.866 128.264C112.471 128.68 112.274 129.283 112.274 130.072V135H110.45V126.184H112.274V127.192C112.573 126.829 112.951 126.547 113.41 126.344C113.879 126.141 114.375 126.04 114.898 126.04ZM120.233 130.584C120.233 129.677 120.414 128.883 120.777 128.2C121.15 127.507 121.662 126.973 122.313 126.6C122.963 126.227 123.71 126.04 124.553 126.04C125.619 126.04 126.499 126.296 127.193 126.808C127.897 127.309 128.371 128.029 128.617 128.968H126.649C126.489 128.531 126.233 128.189 125.881 127.944C125.529 127.699 125.086 127.576 124.553 127.576C123.806 127.576 123.209 127.843 122.761 128.376C122.323 128.899 122.105 129.635 122.105 130.584C122.105 131.533 122.323 132.275 122.761 132.808C123.209 133.341 123.806 133.608 124.553 133.608C125.609 133.608 126.307 133.144 126.649 132.216H128.617C128.361 133.112 127.881 133.827 127.177 134.36C126.473 134.883 125.598 135.144 124.553 135.144C123.71 135.144 122.963 134.957 122.313 134.584C121.662 134.2 121.15 133.667 120.777 132.984C120.414 132.291 120.233 131.491 120.233 130.584ZM138.514 130.376C138.514 130.707 138.493 131.005 138.45 131.272H131.714C131.768 131.976 132.029 132.541 132.498 132.968C132.968 133.395 133.544 133.608 134.226 133.608C135.208 133.608 135.901 133.197 136.306 132.376H138.274C138.008 133.187 137.522 133.853 136.818 134.376C136.125 134.888 135.261 135.144 134.226 135.144C133.384 135.144 132.626 134.957 131.954 134.584C131.293 134.2 130.77 133.667 130.386 132.984C130.013 132.291 129.826 131.491 129.826 130.584C129.826 129.677 130.008 128.883 130.37 128.2C130.744 127.507 131.261 126.973 131.922 126.6C132.594 126.227 133.362 126.04 134.226 126.04C135.058 126.04 135.8 126.221 136.45 126.584C137.101 126.947 137.608 127.459 137.97 128.12C138.333 128.771 138.514 129.523 138.514 130.376ZM136.61 129.8C136.6 129.128 136.36 128.589 135.89 128.184C135.421 127.779 134.84 127.576 134.146 127.576C133.517 127.576 132.978 127.779 132.53 128.184C132.082 128.579 131.816 129.117 131.73 129.8H136.61Z" fill="black"/>
<defs>
<clipPath id="clip0_174_219">
<rect width="50" height="50" fill="white" transform="translate(62 29)"/>
</clipPath>
</defs>
</svg>
