<svg width="174" height="136" viewBox="0 0 174 136" fill="none" xmlns="http://www.w3.org/2000/svg">
<path d="M24.5714 0.799805H149.143C161.956 0.799805 172.343 11.187 172.343 24V84C172.343 96.813 161.956 107.2 149.143 107.2H24.5714C11.7584 107.2 1.37123 96.813 1.37123 84V24C1.37123 11.187 11.7584 0.799805 24.5714 0.799805Z" stroke="#F1F1F1" stroke-width="1.6"/>
<g clip-path="url(#clip0_174_209)">
<path d="M111.857 69.6978L93.7384 38.302L84.0321 43.8999L98.9176 69.6978H111.857ZM94.5926 69.6978L82.6259 48.9791L72.9196 54.577L81.653 69.6978H94.5926ZM71.5613 59.6728L77.3446 69.6978H64.4051L61.8571 65.2708L71.5613 59.6728Z" fill="black"/>
</g>
<path d="M66.2611 132.728H61.6051L60.8051 135H58.9011L62.8851 123.864H64.9971L68.9811 135H67.0611L66.2611 132.728ZM65.7491 131.24L63.9411 126.072L62.1171 131.24H65.7491ZM70.1054 130.552C70.1054 129.667 70.2867 128.883 70.6494 128.2C71.0227 127.517 71.5241 126.989 72.1534 126.616C72.7934 126.232 73.5027 126.04 74.2814 126.04C74.8574 126.04 75.4227 126.168 75.9774 126.424C76.5427 126.669 76.9907 127 77.3214 127.416V123.16H79.1614V135H77.3214V133.672C77.0227 134.099 76.6067 134.451 76.0734 134.728C75.5507 135.005 74.9481 135.144 74.2654 135.144C73.4974 135.144 72.7934 134.952 72.1534 134.568C71.5241 134.173 71.0227 133.629 70.6494 132.936C70.2867 132.232 70.1054 131.437 70.1054 130.552ZM77.3214 130.584C77.3214 129.976 77.1934 129.448 76.9374 129C76.6921 128.552 76.3667 128.211 75.9614 127.976C75.5561 127.741 75.1187 127.624 74.6494 127.624C74.1801 127.624 73.7427 127.741 73.3374 127.976C72.9321 128.2 72.6014 128.536 72.3454 128.984C72.1001 129.421 71.9774 129.944 71.9774 130.552C71.9774 131.16 72.1001 131.693 72.3454 132.152C72.6014 132.611 72.9321 132.963 73.3374 133.208C73.7534 133.443 74.1907 133.56 74.6494 133.56C75.1187 133.56 75.5561 133.443 75.9614 133.208C76.3667 132.973 76.6921 132.632 76.9374 132.184C77.1934 131.725 77.3214 131.192 77.3214 130.584ZM82.4851 125.016C82.1545 125.016 81.8771 124.904 81.6531 124.68C81.4291 124.456 81.3171 124.179 81.3171 123.848C81.3171 123.517 81.4291 123.24 81.6531 123.016C81.8771 122.792 82.1545 122.68 82.4851 122.68C82.8051 122.68 83.0771 122.792 83.3011 123.016C83.5251 123.24 83.6371 123.517 83.6371 123.848C83.6371 124.179 83.5251 124.456 83.3011 124.68C83.0771 124.904 82.8051 125.016 82.4851 125.016ZM83.3811 126.184V135H81.5571V126.184H83.3811ZM85.1679 130.552C85.1679 129.667 85.3492 128.883 85.7119 128.2C86.0852 127.517 86.5866 126.989 87.2159 126.616C87.8559 126.232 88.5652 126.04 89.3439 126.04C89.9199 126.04 90.4852 126.168 91.0399 126.424C91.6052 126.669 92.0532 127 92.3839 127.416V123.16H94.2239V135H92.3839V133.672C92.0852 134.099 91.6692 134.451 91.1359 134.728C90.6132 135.005 90.0106 135.144 89.3279 135.144C88.5599 135.144 87.8559 134.952 87.2159 134.568C86.5866 134.173 86.0852 133.629 85.7119 132.936C85.3492 132.232 85.1679 131.437 85.1679 130.552ZM92.3839 130.584C92.3839 129.976 92.2559 129.448 91.9999 129C91.7546 128.552 91.4292 128.211 91.0239 127.976C90.6186 127.741 90.1812 127.624 89.7119 127.624C89.2426 127.624 88.8052 127.741 88.3999 127.976C87.9946 128.2 87.6639 128.536 87.4079 128.984C87.1626 129.421 87.0399 129.944 87.0399 130.552C87.0399 131.16 87.1626 131.693 87.4079 132.152C87.6639 132.611 87.9946 132.963 88.3999 133.208C88.8159 133.443 89.2532 133.56 89.7119 133.56C90.1812 133.56 90.6186 133.443 91.0239 133.208C91.4292 132.973 91.7546 132.632 91.9999 132.184C92.2559 131.725 92.3839 131.192 92.3839 130.584ZM96.0116 130.552C96.0116 129.667 96.193 128.883 96.5556 128.2C96.929 127.517 97.4303 126.989 98.0596 126.616C98.6996 126.232 99.4036 126.04 100.172 126.04C100.865 126.04 101.468 126.179 101.98 126.456C102.502 126.723 102.918 127.059 103.228 127.464V126.184H105.068V135H103.228V133.688C102.918 134.104 102.497 134.451 101.964 134.728C101.43 135.005 100.822 135.144 100.14 135.144C99.3823 135.144 98.689 134.952 98.0596 134.568C97.4303 134.173 96.929 133.629 96.5556 132.936C96.193 132.232 96.0116 131.437 96.0116 130.552ZM103.228 130.584C103.228 129.976 103.1 129.448 102.844 129C102.598 128.552 102.273 128.211 101.868 127.976C101.462 127.741 101.025 127.624 100.556 127.624C100.086 127.624 99.649 127.741 99.2436 127.976C98.8383 128.2 98.5076 128.536 98.2516 128.984C98.0063 129.421 97.8836 129.944 97.8836 130.552C97.8836 131.16 98.0063 131.693 98.2516 132.152C98.5076 132.611 98.8383 132.963 99.2436 133.208C99.6596 133.443 100.097 133.56 100.556 133.56C101.025 133.56 101.462 133.443 101.868 133.208C102.273 132.973 102.598 132.632 102.844 132.184C103.1 131.725 103.228 131.192 103.228 130.584ZM110.663 135.144C109.97 135.144 109.346 135.021 108.791 134.776C108.247 134.52 107.815 134.179 107.495 133.752C107.175 133.315 107.005 132.829 106.983 132.296H108.871C108.903 132.669 109.079 132.984 109.399 133.24C109.73 133.485 110.141 133.608 110.631 133.608C111.143 133.608 111.538 133.512 111.815 133.32C112.103 133.117 112.247 132.861 112.247 132.552C112.247 132.221 112.087 131.976 111.767 131.816C111.458 131.656 110.962 131.48 110.279 131.288C109.618 131.107 109.079 130.931 108.663 130.76C108.247 130.589 107.885 130.328 107.575 129.976C107.277 129.624 107.127 129.16 107.127 128.584C107.127 128.115 107.266 127.688 107.543 127.304C107.821 126.909 108.215 126.6 108.727 126.376C109.25 126.152 109.847 126.04 110.519 126.04C111.522 126.04 112.327 126.296 112.935 126.808C113.554 127.309 113.885 127.997 113.927 128.872H112.103C112.071 128.477 111.911 128.163 111.623 127.928C111.335 127.693 110.946 127.576 110.455 127.576C109.975 127.576 109.607 127.667 109.351 127.848C109.095 128.029 108.967 128.269 108.967 128.568C108.967 128.803 109.053 129 109.223 129.16C109.394 129.32 109.602 129.448 109.847 129.544C110.093 129.629 110.455 129.741 110.935 129.88C111.575 130.051 112.098 130.227 112.503 130.408C112.919 130.579 113.277 130.835 113.575 131.176C113.874 131.517 114.029 131.971 114.039 132.536C114.039 133.037 113.901 133.485 113.623 133.88C113.346 134.275 112.951 134.584 112.439 134.808C111.938 135.032 111.346 135.144 110.663 135.144Z" fill="black"/>
<defs>
<clipPath id="clip0_174_209">
<rect width="50" height="50" fill="white" transform="translate(61.8571 29)"/>
</clipPath>
</defs>
</svg>
