<svg width="173" height="136" viewBox="0 0 173 136" fill="none" xmlns="http://www.w3.org/2000/svg">
<path d="M24.2858 0.799805H148.857C161.67 0.799805 172.057 11.187 172.057 24V84C172.057 96.813 161.67 107.2 148.857 107.2H24.2858C11.4728 107.2 1.08557 96.813 1.08557 84V24C1.08557 11.187 11.4728 0.799805 24.2858 0.799805Z" stroke="#F1F1F1" stroke-width="1.6"/>
<path d="M75.7234 65.9429L75.6869 56.9443L84.3024 53.7482L75.626 50.9066L75.4443 42.0406L70.1811 49.194L61.5715 46.5398L66.5692 54.0489L61.691 61.5717L70.1884 58.7555L75.7234 65.9429Z" fill="black"/>
<path d="M76.7993 75.4017H92.231L111.571 54.013L92.1377 32.5981H76.8549L95.0308 53.9815L76.7993 75.4017Z" fill="black"/>
<path d="M48.6635 129.416C48.6635 128.328 48.9141 127.352 49.4155 126.488C49.9275 125.624 50.6155 124.952 51.4795 124.472C52.3541 123.981 53.3088 123.736 54.3435 123.736C55.5275 123.736 56.5781 124.029 57.4955 124.616C58.4235 125.192 59.0955 126.013 59.5115 127.08H57.3195C57.0315 126.493 56.6315 126.056 56.1195 125.768C55.6075 125.48 55.0155 125.336 54.3435 125.336C53.6075 125.336 52.9515 125.501 52.3755 125.832C51.7995 126.163 51.3461 126.637 51.0155 127.256C50.6955 127.875 50.5355 128.595 50.5355 129.416C50.5355 130.237 50.6955 130.957 51.0155 131.576C51.3461 132.195 51.7995 132.675 52.3755 133.016C52.9515 133.347 53.6075 133.512 54.3435 133.512C55.0155 133.512 55.6075 133.368 56.1195 133.08C56.6315 132.792 57.0315 132.355 57.3195 131.768H59.5115C59.0955 132.835 58.4235 133.656 57.4955 134.232C56.5781 134.808 55.5275 135.096 54.3435 135.096C53.2981 135.096 52.3435 134.856 51.4795 134.376C50.6155 133.885 49.9275 133.208 49.4155 132.344C48.9141 131.48 48.6635 130.504 48.6635 129.416ZM65.4705 135.144C64.6385 135.144 63.8865 134.957 63.2145 134.584C62.5425 134.2 62.0145 133.667 61.6305 132.984C61.2465 132.291 61.0545 131.491 61.0545 130.584C61.0545 129.688 61.2518 128.893 61.6465 128.2C62.0411 127.507 62.5798 126.973 63.2625 126.6C63.9451 126.227 64.7078 126.04 65.5505 126.04C66.3931 126.04 67.1558 126.227 67.8385 126.6C68.5211 126.973 69.0598 127.507 69.4545 128.2C69.8491 128.893 70.0465 129.688 70.0465 130.584C70.0465 131.48 69.8438 132.275 69.4385 132.968C69.0331 133.661 68.4785 134.2 67.7745 134.584C67.0811 134.957 66.3131 135.144 65.4705 135.144ZM65.4705 133.56C65.9398 133.56 66.3771 133.448 66.7825 133.224C67.1985 133 67.5345 132.664 67.7905 132.216C68.0465 131.768 68.1745 131.224 68.1745 130.584C68.1745 129.944 68.0518 129.405 67.8065 128.968C67.5611 128.52 67.2358 128.184 66.8305 127.96C66.4251 127.736 65.9878 127.624 65.5185 127.624C65.0491 127.624 64.6118 127.736 64.2065 127.96C63.8118 128.184 63.4971 128.52 63.2625 128.968C63.0278 129.405 62.9105 129.944 62.9105 130.584C62.9105 131.533 63.1505 132.269 63.6305 132.792C64.1211 133.304 64.7345 133.56 65.4705 133.56ZM76.2976 126.04C76.9909 126.04 77.6096 126.184 78.1536 126.472C78.7083 126.76 79.1403 127.187 79.4496 127.752C79.7589 128.317 79.9136 129 79.9136 129.8V135H78.1056V130.072C78.1056 129.283 77.9083 128.68 77.5136 128.264C77.1189 127.837 76.5803 127.624 75.8976 127.624C75.2149 127.624 74.6709 127.837 74.2656 128.264C73.8709 128.68 73.6736 129.283 73.6736 130.072V135H71.8496V126.184H73.6736V127.192C73.9723 126.829 74.3509 126.547 74.8096 126.344C75.2789 126.141 75.7749 126.04 76.2976 126.04ZM85.6482 133.368L88.1442 126.184H90.0802L86.7202 135H84.5442L81.2002 126.184H83.1522L85.6482 133.368ZM99.539 130.376C99.539 130.707 99.5176 131.005 99.475 131.272H92.739C92.7923 131.976 93.0536 132.541 93.523 132.968C93.9923 133.395 94.5683 133.608 95.251 133.608C96.2323 133.608 96.9256 133.197 97.331 132.376H99.299C99.0323 133.187 98.547 133.853 97.843 134.376C97.1496 134.888 96.2856 135.144 95.251 135.144C94.4083 135.144 93.651 134.957 92.979 134.584C92.3176 134.2 91.795 133.667 91.411 132.984C91.0376 132.291 90.851 131.491 90.851 130.584C90.851 129.677 91.0323 128.883 91.395 128.2C91.7683 127.507 92.2856 126.973 92.947 126.6C93.619 126.227 94.387 126.04 95.251 126.04C96.083 126.04 96.8243 126.221 97.475 126.584C98.1256 126.947 98.6323 127.459 98.995 128.12C99.3576 128.771 99.539 129.523 99.539 130.376ZM97.635 129.8C97.6243 129.128 97.3843 128.589 96.915 128.184C96.4456 127.779 95.8643 127.576 95.171 127.576C94.5416 127.576 94.003 127.779 93.555 128.184C93.107 128.579 92.8403 129.117 92.755 129.8H97.635ZM103.158 127.464C103.425 127.016 103.777 126.669 104.214 126.424C104.662 126.168 105.19 126.04 105.798 126.04V127.928H105.334C104.619 127.928 104.075 128.109 103.702 128.472C103.339 128.835 103.158 129.464 103.158 130.36V135H101.334V126.184H103.158V127.464ZM110.675 135.144C109.981 135.144 109.357 135.021 108.803 134.776C108.259 134.52 107.827 134.179 107.507 133.752C107.187 133.315 107.016 132.829 106.995 132.296H108.883C108.915 132.669 109.091 132.984 109.411 133.24C109.741 133.485 110.152 133.608 110.643 133.608C111.155 133.608 111.549 133.512 111.827 133.32C112.115 133.117 112.259 132.861 112.259 132.552C112.259 132.221 112.099 131.976 111.779 131.816C111.469 131.656 110.973 131.48 110.291 131.288C109.629 131.107 109.091 130.931 108.675 130.76C108.259 130.589 107.896 130.328 107.587 129.976C107.288 129.624 107.139 129.16 107.139 128.584C107.139 128.115 107.277 127.688 107.555 127.304C107.832 126.909 108.227 126.6 108.739 126.376C109.261 126.152 109.859 126.04 110.531 126.04C111.533 126.04 112.339 126.296 112.947 126.808C113.565 127.309 113.896 127.997 113.939 128.872H112.115C112.083 128.477 111.923 128.163 111.635 127.928C111.347 127.693 110.957 127.576 110.467 127.576C109.987 127.576 109.619 127.667 109.363 127.848C109.107 128.029 108.979 128.269 108.979 128.568C108.979 128.803 109.064 129 109.235 129.16C109.405 129.32 109.613 129.448 109.859 129.544C110.104 129.629 110.467 129.741 110.947 129.88C111.587 130.051 112.109 130.227 112.515 130.408C112.931 130.579 113.288 130.835 113.587 131.176C113.885 131.517 114.04 131.971 114.051 132.536C114.051 133.037 113.912 133.485 113.635 133.88C113.357 134.275 112.963 134.584 112.451 134.808C111.949 135.032 111.357 135.144 110.675 135.144ZM124.101 130.376C124.101 130.707 124.08 131.005 124.037 131.272H117.301C117.355 131.976 117.616 132.541 118.085 132.968C118.555 133.395 119.131 133.608 119.813 133.608C120.795 133.608 121.488 133.197 121.893 132.376H123.861C123.595 133.187 123.109 133.853 122.405 134.376C121.712 134.888 120.848 135.144 119.813 135.144C118.971 135.144 118.213 134.957 117.541 134.584C116.88 134.2 116.357 133.667 115.973 132.984C115.6 132.291 115.413 131.491 115.413 130.584C115.413 129.677 115.595 128.883 115.957 128.2C116.331 127.507 116.848 126.973 117.509 126.6C118.181 126.227 118.949 126.04 119.813 126.04C120.645 126.04 121.387 126.221 122.037 126.584C122.688 126.947 123.195 127.459 123.557 128.12C123.92 128.771 124.101 129.523 124.101 130.376ZM122.197 129.8C122.187 129.128 121.947 128.589 121.477 128.184C121.008 127.779 120.427 127.576 119.733 127.576C119.104 127.576 118.565 127.779 118.117 128.184C117.669 128.579 117.403 129.117 117.317 129.8H122.197Z" fill="black"/>
</svg>
