<svg width="173" height="136" viewBox="0 0 173 136" fill="none" xmlns="http://www.w3.org/2000/svg">
<path d="M24.4286 0.799805H149C161.813 0.799805 172.2 11.187 172.2 24V84C172.2 96.813 161.813 107.2 149 107.2H24.4286C11.6156 107.2 1.22839 96.813 1.22839 84V24C1.22839 11.187 11.6156 0.799805 24.4286 0.799805Z" stroke="#F1F1F1" stroke-width="1.6"/>
<g clip-path="url(#clip0_174_234)">
<path d="M113.637 65.872L104.747 41.3974L104.741 41.3812H104.566L102.735 46.4107L99.4028 55.5669L99.395 55.5596C98.2399 54.5405 96.6104 53.9034 94.5582 53.6661L93.9322 53.6015L94.5532 53.5219C97.9375 52.9138 100.213 50.7763 100.213 48.2012C100.213 44.6698 96.8911 42.2049 92.1334 42.2049H82.2343V42.3837H85.1107V60.6309L78.1248 41.3974L78.1187 41.3812H77.9433L76.1127 46.4107L69.0522 65.809L69.0087 65.8141C68.8881 65.8289 68.7687 65.8408 68.6506 65.8497C68.473 65.8636 68.2964 65.872 68.1194 65.872H60.9853L74.5461 42.3837L74.6469 42.2071H58.0615V49.4732H58.2375C58.2687 45.934 60.3298 42.3837 64.8837 42.3837H70.3776L56.7144 66.048H75.1214V59.0866H74.9454C74.9215 62.1713 73.1728 65.1012 69.3702 65.7628L69.2493 65.7834L72.1453 57.8235H80.2578L83.181 65.872H80.2973V66.048H91.6155V65.872H88.7195V53.7313H92.061C95.4615 53.7313 97.4118 55.2506 97.4118 57.8981V60.0517C97.4118 60.2889 97.4279 60.6359 97.4458 60.926V60.9366L95.6497 65.8709H93.3035V66.0468H98.1603V65.8709H95.8391L97.4747 61.3777C97.4781 61.4211 97.4797 61.4473 97.4797 61.4473L97.5248 61.8522L97.5683 62.1201C97.8412 63.7769 98.4749 64.9948 99.4512 65.74L99.5915 65.8419C100.333 66.3576 101.255 66.6188 102.333 66.6188C103.76 66.6188 104.712 66.2629 105.498 65.4253L105.395 65.3284C104.671 65.9967 104.063 66.2674 103.302 66.2674C102.005 66.2674 101.326 64.6941 101.326 63.1426V60.1252C101.333 59.3765 101.215 58.6318 100.979 57.9215L100.947 57.8279V57.8246H106.88L109.804 65.8731H106.92V66.0491H116.714V65.8731L113.637 65.872ZM72.2099 57.6475L76.2063 46.668L80.1938 57.6475H72.2099ZM88.7212 53.5548V42.3837H91.2718C94.679 42.3837 96.4779 44.4092 96.4779 48.239C96.4779 52.3123 95.4453 53.5548 92.061 53.5548H88.7212ZM100.877 57.6475L100.86 57.6041C100.596 56.9618 100.213 56.3759 99.7291 55.8776L99.562 55.7106L99.5442 55.6939L102.827 46.668L106.814 57.6475H100.877Z" fill="black"/>
</g>
<path d="M71.1744 133.416H76.3424V135H69.0144V133.576L74.1664 125.464H69.0144V123.88H76.3424V125.304L71.1744 133.416ZM77.7282 130.552C77.7282 129.667 77.9096 128.883 78.2722 128.2C78.6456 127.517 79.1469 126.989 79.7762 126.616C80.4162 126.232 81.1202 126.04 81.8882 126.04C82.5816 126.04 83.1842 126.179 83.6962 126.456C84.2189 126.723 84.6349 127.059 84.9442 127.464V126.184H86.7842V135H84.9442V133.688C84.6349 134.104 84.2136 134.451 83.6802 134.728C83.1469 135.005 82.5389 135.144 81.8562 135.144C81.0989 135.144 80.4056 134.952 79.7762 134.568C79.1469 134.173 78.6456 133.629 78.2722 132.936C77.9096 132.232 77.7282 131.437 77.7282 130.552ZM84.9442 130.584C84.9442 129.976 84.8162 129.448 84.5602 129C84.3149 128.552 83.9896 128.211 83.5842 127.976C83.1789 127.741 82.7416 127.624 82.2722 127.624C81.8029 127.624 81.3656 127.741 80.9602 127.976C80.5549 128.2 80.2242 128.536 79.9682 128.984C79.7229 129.421 79.6002 129.944 79.6002 130.552C79.6002 131.16 79.7229 131.693 79.9682 132.152C80.2242 132.611 80.5549 132.963 80.9602 133.208C81.3762 133.443 81.8136 133.56 82.2722 133.56C82.7416 133.56 83.1789 133.443 83.5842 133.208C83.9896 132.973 84.3149 132.632 84.5602 132.184C84.8162 131.725 84.9442 131.192 84.9442 130.584ZM91.004 127.464C91.2706 127.016 91.6226 126.669 92.06 126.424C92.508 126.168 93.036 126.04 93.644 126.04V127.928H93.18C92.4653 127.928 91.9213 128.109 91.548 128.472C91.1853 128.835 91.004 129.464 91.004 130.36V135H89.18V126.184H91.004V127.464ZM94.7126 130.552C94.7126 129.667 94.8939 128.883 95.2566 128.2C95.6299 127.517 96.1313 126.989 96.7606 126.616C97.4006 126.232 98.1046 126.04 98.8726 126.04C99.5659 126.04 100.169 126.179 100.681 126.456C101.203 126.723 101.619 127.059 101.929 127.464V126.184H103.769V135H101.929V133.688C101.619 134.104 101.198 134.451 100.665 134.728C100.131 135.005 99.5233 135.144 98.8406 135.144C98.0833 135.144 97.3899 134.952 96.7606 134.568C96.1313 134.173 95.6299 133.629 95.2566 132.936C94.8939 132.232 94.7126 131.437 94.7126 130.552ZM101.929 130.584C101.929 129.976 101.801 129.448 101.545 129C101.299 128.552 100.974 128.211 100.569 127.976C100.163 127.741 99.7259 127.624 99.2566 127.624C98.7873 127.624 98.3499 127.741 97.9446 127.976C97.5393 128.2 97.2086 128.536 96.9526 128.984C96.7073 129.421 96.5846 129.944 96.5846 130.552C96.5846 131.16 96.7073 131.693 96.9526 132.152C97.2086 132.611 97.5393 132.963 97.9446 133.208C98.3606 133.443 98.7979 133.56 99.2566 133.56C99.7259 133.56 100.163 133.443 100.569 133.208C100.974 132.973 101.299 132.632 101.545 132.184C101.801 131.725 101.929 131.192 101.929 130.584Z" fill="black"/>
<defs>
<clipPath id="clip0_174_234">
<rect width="60" height="25.2376" fill="white" transform="translate(56.7144 41.3812)"/>
</clipPath>
</defs>
</svg>
