<svg width="173" height="136" viewBox="0 0 173 136" fill="none" xmlns="http://www.w3.org/2000/svg">
<path d="M24.1429 0.799805H148.714C161.527 0.799805 171.914 11.187 171.914 24V84C171.914 96.813 161.527 107.2 148.714 107.2H24.1429C11.3299 107.2 0.942657 96.813 0.942657 84V24C0.942657 11.187 11.3298 0.799805 24.1429 0.799805Z" stroke="#F1F1F1" stroke-width="1.6"/>
<g clip-path="url(#clip0_174_214)">
<path d="M111.106 35.2666C110.237 34.1561 108.718 35.0457 108.05 35.4332C103.291 38.2374 102.589 43.1749 100.931 46.0103C99.6268 48.2811 97.4893 49.9478 95.556 50.077C94.1268 50.1791 92.5768 49.902 91.0393 49.2332C87.2747 47.6061 85.2476 45.4999 84.7539 45.1291C83.7393 44.3582 75.9414 36.7645 69.5872 36.4541C69.5872 36.4541 68.8122 34.8916 68.6185 34.8645C68.156 34.8124 67.681 35.8041 67.3351 35.9082C67.0226 36.0186 66.4747 34.8416 66.158 34.8936C65.8393 34.9353 65.5289 36.1145 64.908 36.7207C64.4497 37.1645 63.8955 37.1374 63.581 37.6853C63.4726 37.8853 63.5101 38.2374 63.3872 38.5603C63.1226 39.227 62.2393 39.2978 62.231 40.0124C62.231 40.8061 62.9747 40.9582 63.6247 41.5124C64.1414 41.9541 64.1768 42.2666 64.7789 42.4728C65.3164 42.6561 66.0955 42.0832 66.7872 42.2895C67.3643 42.4582 67.9185 42.5811 68.0414 43.1707C68.1539 43.7041 68.0414 44.5416 67.333 44.4478C67.0997 44.4166 66.0872 44.0853 64.8372 44.2186C63.3268 44.3791 61.6018 44.8624 61.433 46.5311C61.3476 47.4624 62.5039 48.552 63.631 48.3353C64.4039 48.1874 64.0393 47.2811 64.4622 46.8436C65.0185 46.2811 68.1539 48.8103 71.0705 48.8103C72.306 48.8103 73.2185 48.4978 74.1268 47.5499C74.2101 47.4895 74.3205 47.3374 74.4497 47.3207C74.595 47.357 74.7326 47.4191 74.856 47.5041C77.2122 49.3728 78.9893 53.1291 87.6268 53.1728C88.8393 53.1874 90.231 53.7541 91.3685 54.7916C92.3685 55.6936 92.9601 57.1353 93.5289 58.5936C94.3997 60.7874 95.9476 62.9041 98.3039 65.2666C98.4289 65.4082 100.366 66.8916 100.512 67.002C100.537 67.0228 100.687 67.3499 100.623 67.5332C100.581 68.9707 100.366 73.0957 103.466 73.2686C104.229 73.3103 104.039 72.7874 104.039 72.4145C104.029 71.7041 103.904 70.9874 104.275 70.2478C104.802 69.252 103.179 68.7707 103.214 66.5895C103.254 64.9561 101.871 65.2332 101.164 63.9853C100.768 63.2707 100.398 62.877 100.435 62.0145C100.587 57.0561 99.358 53.7895 98.758 52.9999C98.2851 52.3874 97.8768 52.1603 98.3268 51.8749C100.91 50.177 101.504 48.5957 101.504 48.5957C102.879 45.3853 104.121 42.4603 105.827 41.1582C106.173 40.9082 107.054 40.2416 107.602 39.9916C109.191 39.2374 110.046 38.7874 110.493 38.3499C111.235 37.6478 111.816 36.1561 111.106 35.2666Z" fill="black"/>
</g>
<path d="M71.4046 127.192C71.4046 127.757 71.2713 128.291 71.0046 128.792C70.7379 129.293 70.3113 129.704 69.7246 130.024C69.1379 130.333 68.3859 130.488 67.4686 130.488H65.4526V135H63.6286V123.88H67.4686C68.3219 123.88 69.0419 124.029 69.6286 124.328C70.2259 124.616 70.6686 125.011 70.9566 125.512C71.2553 126.013 71.4046 126.573 71.4046 127.192ZM67.4686 129C68.1619 129 68.6793 128.845 69.0206 128.536C69.3619 128.216 69.5326 127.768 69.5326 127.192C69.5326 125.976 68.8446 125.368 67.4686 125.368H65.4526V129H67.4686ZM81.1282 126.184V135H79.3042V133.96C79.0162 134.323 78.6375 134.611 78.1682 134.824C77.7095 135.027 77.2189 135.128 76.6962 135.128C76.0029 135.128 75.3789 134.984 74.8242 134.696C74.2802 134.408 73.8482 133.981 73.5282 133.416C73.2189 132.851 73.0642 132.168 73.0642 131.368V126.184H74.8722V131.096C74.8722 131.885 75.0695 132.493 75.4642 132.92C75.8589 133.336 76.3975 133.544 77.0802 133.544C77.7629 133.544 78.3015 133.336 78.6962 132.92C79.1015 132.493 79.3042 131.885 79.3042 131.096V126.184H81.1282ZM94.2068 126.04C94.9002 126.04 95.5188 126.184 96.0628 126.472C96.6175 126.76 97.0495 127.187 97.3588 127.752C97.6788 128.317 97.8388 129 97.8388 129.8V135H96.0308V130.072C96.0308 129.283 95.8335 128.68 95.4388 128.264C95.0442 127.837 94.5055 127.624 93.8228 127.624C93.1402 127.624 92.5962 127.837 92.1908 128.264C91.7962 128.68 91.5988 129.283 91.5988 130.072V135H89.7908V130.072C89.7908 129.283 89.5935 128.68 89.1988 128.264C88.8042 127.837 88.2655 127.624 87.5828 127.624C86.9002 127.624 86.3562 127.837 85.9508 128.264C85.5562 128.68 85.3588 129.283 85.3588 130.072V135H83.5348V126.184H85.3588V127.192C85.6575 126.829 86.0362 126.547 86.4948 126.344C86.9535 126.141 87.4442 126.04 87.9668 126.04C88.6708 126.04 89.3002 126.189 89.8548 126.488C90.4095 126.787 90.8362 127.219 91.1348 127.784C91.4015 127.251 91.8175 126.829 92.3828 126.52C92.9482 126.2 93.5562 126.04 94.2068 126.04ZM99.5518 130.552C99.5518 129.667 99.7332 128.883 100.096 128.2C100.469 127.517 100.971 126.989 101.6 126.616C102.24 126.232 102.944 126.04 103.712 126.04C104.405 126.04 105.008 126.179 105.52 126.456C106.043 126.723 106.459 127.059 106.768 127.464V126.184H108.608V135H106.768V133.688C106.459 134.104 106.037 134.451 105.504 134.728C104.971 135.005 104.363 135.144 103.68 135.144C102.923 135.144 102.229 134.952 101.6 134.568C100.971 134.173 100.469 133.629 100.096 132.936C99.7332 132.232 99.5518 131.437 99.5518 130.552ZM106.768 130.584C106.768 129.976 106.64 129.448 106.384 129C106.139 128.552 105.813 128.211 105.408 127.976C105.003 127.741 104.565 127.624 104.096 127.624C103.627 127.624 103.189 127.741 102.784 127.976C102.379 128.2 102.048 128.536 101.792 128.984C101.547 129.421 101.424 129.944 101.424 130.552C101.424 131.16 101.547 131.693 101.792 132.152C102.048 132.611 102.379 132.963 102.784 133.208C103.2 133.443 103.637 133.56 104.096 133.56C104.565 133.56 105.003 133.443 105.408 133.208C105.813 132.973 106.139 132.632 106.384 132.184C106.64 131.725 106.768 131.192 106.768 130.584Z" fill="black"/>
<defs>
<clipPath id="clip0_174_214">
<rect width="50" height="50" fill="white" transform="translate(61.4286 29)"/>
</clipPath>
</defs>
</svg>
