<svg width="173" height="136" viewBox="0 0 173 136" fill="none" xmlns="http://www.w3.org/2000/svg">
<rect x="0.8" y="0.8" width="170.971" height="106.4" rx="23.2" stroke="#F1F1F1" stroke-width="1.6"/>
<g clip-path="url(#clip0_174_204)">
<path d="M111.286 45.2501L74.707 60.8251C71.6737 62.1098 69.1265 62.7522 67.0654 62.7522C64.732 62.7522 63.0397 61.9348 61.9883 60.3001C61.3286 59.2501 61.1341 57.9182 61.405 56.3043C61.6772 54.6904 62.3966 52.9696 63.5633 51.1418C64.5355 49.6626 66.1307 47.7182 68.3487 45.3085C67.5954 46.4928 67.0435 47.7937 66.7154 49.1585C66.132 51.6473 66.657 53.4751 68.2904 54.6418C69.0682 55.1862 70.1376 55.4585 71.4987 55.4585C72.5862 55.4585 73.8112 55.2835 75.1737 54.9335L111.286 45.2501Z" fill="black"/>
</g>
<path d="M79.1217 135H77.2977L71.8097 126.696V135H69.9857V123.864H71.8097L77.2977 132.152V123.864H79.1217V135ZM82.445 125.016C82.1143 125.016 81.837 124.904 81.613 124.68C81.389 124.456 81.277 124.179 81.277 123.848C81.277 123.517 81.389 123.24 81.613 123.016C81.837 122.792 82.1143 122.68 82.445 122.68C82.765 122.68 83.037 122.792 83.261 123.016C83.485 123.24 83.597 123.517 83.597 123.848C83.597 124.179 83.485 124.456 83.261 124.68C83.037 124.904 82.765 125.016 82.445 125.016ZM83.341 126.184V135H81.517V126.184H83.341ZM89.2237 130.6L93.2877 135H90.8237L87.5597 131.208V135H85.7357V123.16H87.5597V130.04L90.7597 126.184H93.2877L89.2237 130.6ZM102.675 130.376C102.675 130.707 102.654 131.005 102.611 131.272H95.8751C95.9284 131.976 96.1898 132.541 96.6591 132.968C97.1284 133.395 97.7044 133.608 98.3871 133.608C99.3684 133.608 100.062 133.197 100.467 132.376H102.435C102.168 133.187 101.683 133.853 100.979 134.376C100.286 134.888 99.4218 135.144 98.3871 135.144C97.5444 135.144 96.7871 134.957 96.1151 134.584C95.4538 134.2 94.9311 133.667 94.5471 132.984C94.1738 132.291 93.9871 131.491 93.9871 130.584C93.9871 129.677 94.1684 128.883 94.5311 128.2C94.9044 127.507 95.4218 126.973 96.0831 126.6C96.7551 126.227 97.5231 126.04 98.3871 126.04C99.2191 126.04 99.9604 126.221 100.611 126.584C101.262 126.947 101.768 127.459 102.131 128.12C102.494 128.771 102.675 129.523 102.675 130.376ZM100.771 129.8C100.76 129.128 100.52 128.589 100.051 128.184C99.5818 127.779 99.0004 127.576 98.3071 127.576C97.6778 127.576 97.1391 127.779 96.6911 128.184C96.2431 128.579 95.9764 129.117 95.8911 129.8H100.771Z" fill="black"/>
<defs>
<clipPath id="clip0_174_204">
<rect width="50" height="50" fill="white" transform="translate(61.2857 29)"/>
</clipPath>
</defs>
</svg>
